<svg xmlns="http://www.w3.org/2000/svg" xmlns:xlink="http://www.w3.org/1999/xlink" xmlns:inkscape="http://www.inkscape.org/namespaces/inkscape" version="1.1" viewBox="180 180 180 150">
<defs>
<clipPath id="clip_0">
<path transform="matrix(1,0,0,-1,0,595.276)" d="M0 595.276H841.89V0H0Z"/>
</clipPath>
</defs>
<g inkscape:groupmode="layer" inkscape:label="Layer 1">
<g clip-path="url(#clip_0)">
<!-- Icon parts only - colorful geometric shapes -->
<path transform="matrix(1,0,0,-1,281.3481,286.163)" d="M0 0C-24.691 5.093-51.18 1.957-75.059-10.631L-68.492-20.588C-43.437-7.747-15.279-6.421 9.682-14.89 6.049-10.165 2.812-5.186 0 0" fill="#ed1c24"/>
<path transform="matrix(1,0,0,-1,337.8491,296.9179)" d="M0 0 .511 .95C-27.875 17.921-47.195 48.484-48.471 83.653H-60.336C-59.061 44.312-37.581 10.087-5.936-9Z" fill="#009944"/>
<path transform="matrix(1,0,0,-1,324.918,316.5248)" d="M0 0C-26.805 17.576-42.681 46.136-45.058 76.262L-54.23 58.354C-47.833 31.162-31.379 6.413-6.523-9.892Z" fill="#007dc1"/>
<path transform="matrix(1,0,0,-1,277.6382,213.2651)" d="M0 0C-1.032-28.444-13.869-53.873-33.76-71.537-27.888-70.761-21.996-70.459-16.137-70.613 .568-51.659 10.99-27.038 11.867 0Z" fill="#ecb229"/>
<path transform="matrix(1,0,0,-1,219.0293,316.1118)" d="M0 0 6.57-9.961C34.911 4.503 69.471 5.203 99.238-10.497L105.792-.559C71.877 17.778 32.223 16.923 0 0" fill="#7570b3"/>
<path transform="matrix(1,0,0,-1,212.8262,306.7065)" d="M0 0C33.406 20.754 52.346 56.465 53.052 93.441H41.492L41.194 93.434C40.488 60.337 23.456 28.397-6.527 9.897Z" fill="#f5821f"/>
</g>
</g>
</svg>
